{"accessors" : [{"bufferView" : 0, "byteOffset" : 0, "componentType" : 5123, "count" : 6324, "type" : "SCALAR", "max" : [1321], "min" : [0]}, {"bufferView" : 1, "byteOffset" : 0, "componentType" : 5126, "count" : 1322, "type" : "VEC3", "max" : [169.5169677734375, 127.51551055908203, -934.3447265625], "min" : [-169.5169677734375, -118.9044418334961, -1641.4464111328125], "name" : "POSITION"}, {"bufferView" : 1, "byteOffset" : 12, "componentType" : 5126, "count" : 1322, "type" : "VEC3", "max" : [0.9999978542327881, 0.9998705387115479, 0.9999946355819702], "min" : [-0.9993911981582642, -0.9992846250534058, -0.9423404932022095], "name" : "NORMAL"}, {"bufferView" : 1, "byteOffset" : 24, "componentType" : 5126, "count" : 1322, "type" : "VEC2", "max" : [0.9523270130157471, 2], "min" : [0, 1.0303418636322021], "name" : "TEXCOORD_0"}, {"bufferView" : 0, "byteOffset" : 12648, "componentType" : 5123, "count" : 14760, "type" : "SCALAR", "max" : [2465], "min" : [0]}, {"bufferView" : 2, "byteOffset" : 0, "componentType" : 5126, "count" : 2466, "type" : "VEC3", "max" : [131.4180908203125, 188.62432861328125, 0.22789056599140167], "min" : [-159.784912109375, -102.57846069335938, -935.9804077148438], "name" : "POSITION"}, {"bufferView" : 2, "byteOffset" : 12, "componentType" : 5126, "count" : 2466, "type" : "VEC3", "max" : [0.9992159605026245, 0.9992159605026245, 1.0000044107437134], "min" : [-0.9992159605026245, -0.9992159605026245, -1.0000044107437134], "name" : "NORMAL"}, {"bufferView" : 2, "byteOffset" : 24, "componentType" : 5126, "count" : 2466, "type" : "VEC2", "max" : [0, 2], "min" : [0, 2], "name" : "TEXCOORD_0"}], "asset" : {"generator" : "Aspose.3D 24.6.0", "version" : "2.0"}, "buffers" : [{"uri" : "data:application/octet-stream;base64,", "byteLength" : 163396}], "bufferViews" : [{"buffer" : 0, "byteOffset" : 0, "byteLength" : 42168, "target" : 34963}, {"buffer" : 0, "byteOffset" : 42172, "byteLength" : 42304, "byteStride" : 32, "target" : 34962}, {"buffer" : 0, "byteOffset" : 84480, "byteLength" : 78912, "byteStride" : 32, "target" : 34962}], "materials" : [{"name" : "Material.001", "pbrMetallicRoughness" : {"baseColorFactor" : [1, 1, 1, 1], "metallicFactor" : 1, "roughnessFactor" : 1}, "emissiveFactor" : [0, 0, 0], "alphaMode" : "OPAQUE", "doubleSided" : true}, {"name" : "Material.004", "pbrMetallicRoughness" : {"baseColorFactor" : [1, 1, 1, 1], "metallicFactor" : 1, "roughnessFactor" : 1}, "emissiveFactor" : [0, 0, 0], "alphaMode" : "OPAQUE", "doubleSided" : true}], "meshes" : [{"primitives" : [{"attributes" : {"POSITION" : 1, "NORMAL" : 2, "TEXCOORD_0" : 3}, "indices" : 0, "material" : 0, "mode" : 4}, {"attributes" : {"POSITION" : 5, "NORMAL" : 6, "TEXCOORD_0" : 7}, "indices" : 4, "material" : 1, "mode" : 4}]}], "nodes" : [{"matrix" : [0.0017217759741470218, 0, 0, 0, 0, -5.216056073522216E-10, 0.001721775915213092, 0, 0, -0.001721775915213092, -5.216056073522216E-10, 0, 0, 0, 0, 1], "mesh" : 0, "name" : "mannequin"}], "scene" : 0, "scenes" : [{"nodes" : [0]}]}